<svg xmlns="http://www.w3.org/2000/svg" width="1400" height="1400" viewBox="0 0 1400 1400">
<!-- 无缝平铺星空瓦片 · 由 make_starfield.py 生成（seed=20260917） -->
<circle cx="1089.14" cy="1138.2" r="0.85" fill="#F6C445" opacity="0.85"/>
<circle cx="646.02" cy="642.57" r="0.85" fill="#F6C445" opacity="0.84"/>
<circle cx="1264.37" cy="771.3" r="1.07" fill="#F6C445" opacity="1"/>
<circle cx="295.8" cy="611.57" r="0.96" fill="#DCE6FF" opacity="0.82"/>
<circle cx="1141.19" cy="1124.06" r="0.89" fill="#DCE6FF" opacity="0.78"/>
<circle cx="1367.2" cy="747.29" r="1.13" fill="#DCE6FF" opacity="0.91"/>
<circle cx="367.44" cy="1204.58" r="0.8" fill="#DCE6FF" opacity="0.73"/>
<circle cx="1305.67" cy="1323.84" r="1.32" fill="#DCE6FF" opacity="1"/>
<circle cx="1134.16" cy="1098.18" r="1.13" fill="#DCE6FF" opacity="0.92"/>
<circle cx="1368.31" cy="868.52" r="0.97" fill="#DCE6FF" opacity="0.83"/>
<circle cx="274.56" cy="861.08" r="1.21" fill="#DCE6FF" opacity="0.96"/>
<circle cx="397.42" cy="848.46" r="0.79" fill="#DCE6FF" opacity="0.73"/>
<circle cx="872.38" cy="0.55" r="0.92" fill="#FFFFFF" opacity="0.74"/>
<circle cx="872.38" cy="1400.55" r="0.92" fill="#FFFFFF" opacity="0.74"/>
<circle cx="883.21" cy="1044.85" r="0.79" fill="#FFFFFF" opacity="0.67"/>
<circle cx="623.39" cy="390.38" r="0.88" fill="#DCE6FF" opacity="0.72"/>
<circle cx="1196.96" cy="1388.34" r="0.9" fill="#FFFFFF" opacity="0.73"/>
<circle cx="884.87" cy="992.82" r="1.09" fill="#FFFFFF" opacity="0.83"/>
<circle cx="1197.01" cy="1246.76" r="0.79" fill="#DCE6FF" opacity="0.67"/>
<circle cx="888.25" cy="249.43" r="1.06" fill="#FFFFFF" opacity="0.82"/>
<circle cx="955.8" cy="1186.6" r="0.8" fill="#FFE8C4" opacity="0.67"/>
<circle cx="845.76" cy="418.39" r="1.28" fill="#FFFFFF" opacity="0.94"/>
<circle cx="578.81" cy="156.77" r="0.81" fill="#FFFFFF" opacity="0.68"/>
<circle cx="1230.5" cy="693.48" r="1.25" fill="#FFFFFF" opacity="0.92"/>
<circle cx="1098.82" cy="807.62" r="0.78" fill="#FFFFFF" opacity="0.66"/>
<circle cx="235.99" cy="1154.47" r="1.16" fill="#FFE8C4" opacity="0.87"/>
<circle cx="1180.52" cy="1041.27" r="1.12" fill="#FFFFFF" opacity="0.85"/>
<circle cx="571.17" cy="717.31" r="0.98" fill="#FFFFFF" opacity="0.77"/>
<circle cx="508.23" cy="8.17" r="1.21" fill="#DCE6FF" opacity="0.9"/>
<circle cx="891.63" cy="1063.13" r="0.98" fill="#DCE6FF" opacity="0.77"/>
<circle cx="276.89" cy="1199.25" r="1.14" fill="#DCE6FF" opacity="0.86"/>
<circle cx="1364.19" cy="1140.82" r="0.8" fill="#FFFFFF" opacity="0.68"/>
<circle cx="866.34" cy="688.45" r="0.79" fill="#DCE6FF" opacity="0.67"/>
<circle cx="540.4" cy="824.96" r="1.01" fill="#FFFFFF" opacity="0.79"/>
<circle cx="201.97" cy="88.25" r="0.96" fill="#FFE8C4" opacity="0.76"/>
<circle cx="484.77" cy="927.7" r="0.87" fill="#DCE6FF" opacity="0.71"/>
<circle cx="361.86" cy="457.87" r="0.81" fill="#FFFFFF" opacity="0.68"/>
<circle cx="1059.54" cy="569.93" r="0.86" fill="#FFFFFF" opacity="0.71"/>
<circle cx="582.31" cy="380.66" r="0.97" fill="#DCE6FF" opacity="0.77"/>
<circle cx="185.04" cy="601.21" r="0.92" fill="#DCE6FF" opacity="0.74"/>
<circle cx="1236.17" cy="646.05" r="1.04" fill="#FFFFFF" opacity="0.81"/>
<circle cx="182.29" cy="1366.85" r="0.78" fill="#FFFFFF" opacity="0.66"/>
<path d="M1353.69,1000.41 Q1353.69,1005.59 1358.88,1005.59 Q1353.69,1005.59 1353.69,1010.78 Q1353.69,1005.59 1348.51,1005.59 Q1353.69,1005.59 1353.69,1000.41 Z" fill="#F6C445" opacity="0.88"/>
<path d="M251.07,312.75 Q251.07,318.17 256.5,318.17 Q251.07,318.17 251.07,323.6 Q251.07,318.17 245.65,318.17 Q251.07,318.17 251.07,312.75 Z" fill="#FFFFFF" opacity="0.69"/>
<path d="M168.1,1027.77 Q168.1,1031.65 171.99,1031.65 Q168.1,1031.65 168.1,1035.54 Q168.1,1031.65 164.22,1031.65 Q168.1,1031.65 168.1,1027.77 Z" fill="#FFFFFF" opacity="0.75"/>
<path d="M516.34,1274.44 Q516.34,1278.76 520.66,1278.76 Q516.34,1278.76 516.34,1283.09 Q516.34,1278.76 512.01,1278.76 Q516.34,1278.76 516.34,1274.44 Z" fill="#F6C445" opacity="0.65"/>
<g class="twinkle">
<circle cx="1089.14" cy="1138.2" r="0.85" fill="#F6C445" opacity="0.19"><animate attributeName="opacity" values="0.19;0.85;0.47;0.19" dur="6.0s" begin="4.5s" repeatCount="indefinite"/></circle>
<circle cx="646.02" cy="642.57" r="0.85" fill="#F6C445" opacity="0.19"><animate attributeName="opacity" values="0.19;0.84;0.46;0.19" dur="3.8s" begin="4.6s" repeatCount="indefinite"/></circle>
<circle cx="1264.37" cy="771.3" r="1.07" fill="#F6C445" opacity="0.22"><animate attributeName="opacity" values="0.22;1;0.55;0.22" dur="5.9s" begin="3.6s" repeatCount="indefinite"/></circle>
<circle cx="295.8" cy="611.57" r="0.96" fill="#DCE6FF" opacity="0.18"><animate attributeName="opacity" values="0.18;0.82;0.45;0.18" dur="6.6s" begin="2.7s" repeatCount="indefinite"/></circle>
<circle cx="1141.19" cy="1124.06" r="0.89" fill="#DCE6FF" opacity="0.17"><animate attributeName="opacity" values="0.17;0.78;0.43;0.17" dur="4.6s" begin="4.0s" repeatCount="indefinite"/></circle>
<circle cx="1367.2" cy="747.29" r="1.13" fill="#DCE6FF" opacity="0.2"><animate attributeName="opacity" values="0.2;0.91;0.5;0.2" dur="3.3s" begin="5.0s" repeatCount="indefinite"/></circle>
<circle cx="367.44" cy="1204.58" r="0.8" fill="#DCE6FF" opacity="0.16"><animate attributeName="opacity" values="0.16;0.73;0.4;0.16" dur="5.5s" begin="5.2s" repeatCount="indefinite"/></circle>
<circle cx="1305.67" cy="1323.84" r="1.32" fill="#DCE6FF" opacity="0.22"><animate attributeName="opacity" values="0.22;1;0.55;0.22" dur="2.9s" begin="0.2s" repeatCount="indefinite"/></circle>
<circle cx="1134.16" cy="1098.18" r="1.13" fill="#DCE6FF" opacity="0.2"><animate attributeName="opacity" values="0.2;0.92;0.5;0.2" dur="5.1s" begin="3.2s" repeatCount="indefinite"/></circle>
<circle cx="1368.31" cy="868.52" r="0.97" fill="#DCE6FF" opacity="0.18"><animate attributeName="opacity" values="0.18;0.83;0.45;0.18" dur="4.3s" begin="4.4s" repeatCount="indefinite"/></circle>
<circle cx="274.56" cy="861.08" r="1.21" fill="#DCE6FF" opacity="0.21"><animate attributeName="opacity" values="0.21;0.96;0.53;0.21" dur="7.1s" begin="4.9s" repeatCount="indefinite"/></circle>
<circle cx="397.42" cy="848.46" r="0.79" fill="#DCE6FF" opacity="0.16"><animate attributeName="opacity" values="0.16;0.73;0.4;0.16" dur="3.0s" begin="3.0s" repeatCount="indefinite"/></circle>
<circle cx="872.38" cy="0.55" r="0.92" fill="#FFFFFF" opacity="0.16"><animate attributeName="opacity" values="0.16;0.74;0.41;0.16" dur="3.2s" begin="3.4s" repeatCount="indefinite"/></circle>
<circle cx="872.38" cy="1400.55" r="0.92" fill="#FFFFFF" opacity="0.16"><animate attributeName="opacity" values="0.16;0.74;0.41;0.16" dur="3.2s" begin="3.4s" repeatCount="indefinite"/></circle>
<circle cx="883.21" cy="1044.85" r="0.79" fill="#FFFFFF" opacity="0.15"><animate attributeName="opacity" values="0.15;0.67;0.37;0.15" dur="4.0s" begin="1.1s" repeatCount="indefinite"/></circle>
<circle cx="623.39" cy="390.38" r="0.88" fill="#DCE6FF" opacity="0.16"><animate attributeName="opacity" values="0.16;0.72;0.4;0.16" dur="6.8s" begin="0.2s" repeatCount="indefinite"/></circle>
<circle cx="1196.96" cy="1388.34" r="0.9" fill="#FFFFFF" opacity="0.16"><animate attributeName="opacity" values="0.16;0.73;0.4;0.16" dur="2.7s" begin="2.8s" repeatCount="indefinite"/></circle>
<circle cx="884.87" cy="992.82" r="1.09" fill="#FFFFFF" opacity="0.18"><animate attributeName="opacity" values="0.18;0.83;0.46;0.18" dur="3.5s" begin="2.1s" repeatCount="indefinite"/></circle>
<circle cx="1197.01" cy="1246.76" r="0.79" fill="#DCE6FF" opacity="0.15"><animate attributeName="opacity" values="0.15;0.67;0.37;0.15" dur="4.9s" begin="1.8s" repeatCount="indefinite"/></circle>
<circle cx="888.25" cy="249.43" r="1.06" fill="#FFFFFF" opacity="0.18"><animate attributeName="opacity" values="0.18;0.82;0.45;0.18" dur="6.1s" begin="0.7s" repeatCount="indefinite"/></circle>
<circle cx="955.8" cy="1186.6" r="0.8" fill="#FFE8C4" opacity="0.15"><animate attributeName="opacity" values="0.15;0.67;0.37;0.15" dur="5.8s" begin="5.7s" repeatCount="indefinite"/></circle>
<circle cx="845.76" cy="418.39" r="1.28" fill="#FFFFFF" opacity="0.21"><animate attributeName="opacity" values="0.21;0.94;0.51;0.21" dur="4.1s" begin="3.0s" repeatCount="indefinite"/></circle>
<circle cx="578.81" cy="156.77" r="0.81" fill="#FFFFFF" opacity="0.15"><animate attributeName="opacity" values="0.15;0.68;0.37;0.15" dur="5.9s" begin="2.2s" repeatCount="indefinite"/></circle>
<circle cx="1230.5" cy="693.48" r="1.25" fill="#FFFFFF" opacity="0.2"><animate attributeName="opacity" values="0.2;0.92;0.51;0.2" dur="4.0s" begin="4.2s" repeatCount="indefinite"/></circle>
<circle cx="1098.82" cy="807.62" r="0.78" fill="#FFFFFF" opacity="0.15"><animate attributeName="opacity" values="0.15;0.66;0.36;0.15" dur="7.1s" begin="3.1s" repeatCount="indefinite"/></circle>
<circle cx="235.99" cy="1154.47" r="1.16" fill="#FFE8C4" opacity="0.19"><animate attributeName="opacity" values="0.19;0.87;0.48;0.19" dur="3.1s" begin="1.2s" repeatCount="indefinite"/></circle>
<circle cx="1180.52" cy="1041.27" r="1.12" fill="#FFFFFF" opacity="0.19"><animate attributeName="opacity" values="0.19;0.85;0.47;0.19" dur="6.2s" begin="4.8s" repeatCount="indefinite"/></circle>
<circle cx="571.17" cy="717.31" r="0.98" fill="#FFFFFF" opacity="0.17"><animate attributeName="opacity" values="0.17;0.77;0.42;0.17" dur="4.5s" begin="5.9s" repeatCount="indefinite"/></circle>
<circle cx="508.23" cy="8.17" r="1.21" fill="#DCE6FF" opacity="0.2"><animate attributeName="opacity" values="0.2;0.9;0.49;0.2" dur="3.7s" begin="4.1s" repeatCount="indefinite"/></circle>
<circle cx="891.63" cy="1063.13" r="0.98" fill="#DCE6FF" opacity="0.17"><animate attributeName="opacity" values="0.17;0.77;0.42;0.17" dur="3.8s" begin="4.5s" repeatCount="indefinite"/></circle>
<circle cx="276.89" cy="1199.25" r="1.14" fill="#DCE6FF" opacity="0.19"><animate attributeName="opacity" values="0.19;0.86;0.47;0.19" dur="6.9s" begin="4.2s" repeatCount="indefinite"/></circle>
<circle cx="1364.19" cy="1140.82" r="0.8" fill="#FFFFFF" opacity="0.15"><animate attributeName="opacity" values="0.15;0.68;0.37;0.15" dur="2.9s" begin="0.1s" repeatCount="indefinite"/></circle>
<circle cx="866.34" cy="688.45" r="0.79" fill="#DCE6FF" opacity="0.15"><animate attributeName="opacity" values="0.15;0.67;0.37;0.15" dur="6.8s" begin="0.1s" repeatCount="indefinite"/></circle>
<circle cx="540.4" cy="824.96" r="1.01" fill="#FFFFFF" opacity="0.17"><animate attributeName="opacity" values="0.17;0.79;0.43;0.17" dur="5.6s" begin="3.6s" repeatCount="indefinite"/></circle>
<circle cx="201.97" cy="88.25" r="0.96" fill="#FFE8C4" opacity="0.17"><animate attributeName="opacity" values="0.17;0.76;0.42;0.17" dur="4.4s" begin="1.3s" repeatCount="indefinite"/></circle>
<circle cx="484.77" cy="927.7" r="0.87" fill="#DCE6FF" opacity="0.16"><animate attributeName="opacity" values="0.16;0.71;0.39;0.16" dur="5.7s" begin="4.8s" repeatCount="indefinite"/></circle>
<circle cx="361.86" cy="457.87" r="0.81" fill="#FFFFFF" opacity="0.15"><animate attributeName="opacity" values="0.15;0.68;0.37;0.15" dur="5.6s" begin="3.5s" repeatCount="indefinite"/></circle>
<circle cx="1059.54" cy="569.93" r="0.86" fill="#FFFFFF" opacity="0.16"><animate attributeName="opacity" values="0.16;0.71;0.39;0.16" dur="3.8s" begin="0.2s" repeatCount="indefinite"/></circle>
<circle cx="582.31" cy="380.66" r="0.97" fill="#DCE6FF" opacity="0.17"><animate attributeName="opacity" values="0.17;0.77;0.42;0.17" dur="7.1s" begin="4.6s" repeatCount="indefinite"/></circle>
<circle cx="185.04" cy="601.21" r="0.92" fill="#DCE6FF" opacity="0.16"><animate attributeName="opacity" values="0.16;0.74;0.41;0.16" dur="5.8s" begin="3.9s" repeatCount="indefinite"/></circle>
<circle cx="1236.17" cy="646.05" r="1.04" fill="#FFFFFF" opacity="0.18"><animate attributeName="opacity" values="0.18;0.81;0.44;0.18" dur="6.4s" begin="3.2s" repeatCount="indefinite"/></circle>
<circle cx="182.29" cy="1366.85" r="0.78" fill="#FFFFFF" opacity="0.15"><animate attributeName="opacity" values="0.15;0.66;0.36;0.15" dur="4.6s" begin="1.8s" repeatCount="indefinite"/></circle>
<path d="M394.42,1332.97 Q394.42,1338.79 400.24,1338.79 Q394.42,1338.79 394.42,1344.61 Q394.42,1338.79 388.6,1338.79 Q394.42,1338.79 394.42,1332.97 Z" fill="#F6C445" opacity="0.2"><animate attributeName="opacity" values="0.18;1;0.5;0.18" dur="4.8s" begin="2.0s" repeatCount="indefinite"/></path>
<path d="M1088.81,329.36 Q1088.81,334.79 1094.24,334.79 Q1088.81,334.79 1088.81,340.23 Q1088.81,334.79 1083.38,334.79 Q1088.81,334.79 1088.81,329.36 Z" fill="#FFFFFF" opacity="0.2"><animate attributeName="opacity" values="0.18;1;0.5;0.18" dur="4.0s" begin="0.0s" repeatCount="indefinite"/></path>
<path d="M78.98,433.88 Q78.98,437.5 82.59,437.5 Q78.98,437.5 78.98,441.11 Q78.98,437.5 75.37,437.5 Q78.98,437.5 78.98,433.88 Z" fill="#FFFFFF" opacity="0.2"><animate attributeName="opacity" values="0.18;1;0.5;0.18" dur="5.0s" begin="3.4s" repeatCount="indefinite"/></path>
<path d="M784.43,66.21 Q784.43,70.35 788.58,70.35 Q784.43,70.35 784.43,74.5 Q784.43,70.35 780.28,70.35 Q784.43,70.35 784.43,66.21 Z" fill="#FFFFFF" opacity="0.2"><animate attributeName="opacity" values="0.18;1;0.5;0.18" dur="7.0s" begin="1.5s" repeatCount="indefinite"/></path>
</g>
</svg>
